<svg xmlns="http://www.w3.org/2000/svg" xmlns:xlink="http://www.w3.org/1999/xlink" width="474" zoomAndPan="magnify" viewBox="0 0 355.5 434.999989" height="580" preserveAspectRatio="xMidYMid meet" version="1.0"><defs><g/><clipPath id="898695823f"><path d="M 60 0.304688 L 232 0.304688 L 232 106 L 60 106 Z M 60 0.304688 " clip-rule="nonzero"/></clipPath><clipPath id="b536e7b072"><path d="M 164 207 L 242 207 L 242 230.292969 L 164 230.292969 Z M 164 207 " clip-rule="nonzero"/></clipPath></defs><g clip-path="url(#898695823f)"><path fill="#f8f9fd" d="M 231.472656 21.011719 L 71.332031 105.417969 L 60.5625 85.039062 L 220.703125 0.632812 L 231.472656 21.011719 " fill-opacity="1" fill-rule="nonzero"/><path fill="#adb0c6" d="M 231.472656 21.011719 L 231.347656 20.78125 L 71.4375 105.0625 L 60.910156 85.144531 L 220.59375 0.984375 L 231.242188 21.132812 L 231.472656 21.011719 L 231.347656 20.78125 L 231.472656 21.011719 L 231.699219 20.890625 L 220.8125 0.28125 L 60.207031 84.925781 L 71.21875 105.765625 L 231.824219 21.121094 L 231.699219 20.890625 L 231.472656 21.011719 " fill-opacity="1" fill-rule="nonzero"/></g><path fill="#191716" d="M 85.75 96.496094 L 71.90625 103.789062 L 73.125 80.300781 L 86.964844 73.003906 L 85.75 96.496094 " fill-opacity="1" fill-rule="nonzero"/><path fill="#191716" d="M 112.390625 82.453125 L 98.550781 89.746094 L 99.769531 66.253906 L 113.613281 58.960938 L 112.390625 82.453125 " fill-opacity="1" fill-rule="nonzero"/><path fill="#191716" d="M 139.039062 68.40625 L 125.199219 75.703125 L 126.417969 52.210938 L 140.253906 44.917969 L 139.039062 68.40625 " fill-opacity="1" fill-rule="nonzero"/><path fill="#191716" d="M 165.691406 54.363281 L 151.847656 61.65625 L 153.0625 38.164062 L 166.90625 30.875 L 165.691406 54.363281 " fill-opacity="1" fill-rule="nonzero"/><path fill="#191716" d="M 192.332031 40.316406 L 178.492188 47.613281 L 179.710938 24.121094 L 193.546875 16.828125 L 192.332031 40.316406 " fill-opacity="1" fill-rule="nonzero"/><path fill="#191716" d="M 218.984375 26.273438 L 205.144531 33.566406 L 206.359375 10.078125 L 220.199219 2.785156 L 218.984375 26.273438 " fill-opacity="1" fill-rule="nonzero"/><path fill="#191716" d="M 64.394531 88.722656 L 73.148438 121.773438 C 73.148438 121.773438 74.414062 124.269531 76.816406 123.988281 L 111.238281 114.898438 C 111.238281 114.898438 113.359375 112.214844 109.660156 108.945312 L 70.914062 87 C 70.914062 87 65.582031 83.460938 64.394531 88.722656 " fill-opacity="1" fill-rule="nonzero"/><path fill="#161413" d="M 64.394531 88.722656 L 64.144531 88.789062 L 72.902344 121.867188 L 72.914062 121.894531 C 72.921875 121.90625 73.214844 122.488281 73.796875 123.074219 C 74.378906 123.664062 75.265625 124.269531 76.4375 124.269531 C 76.570312 124.269531 76.707031 124.261719 76.847656 124.246094 L 76.863281 124.242188 L 111.390625 115.128906 L 111.441406 115.058594 C 111.460938 115.035156 112.101562 114.21875 112.101562 112.917969 C 112.105469 111.785156 111.597656 110.304688 109.832031 108.753906 L 109.8125 108.734375 L 71.042969 86.773438 L 70.914062 87 L 71.058594 86.78125 C 71.039062 86.773438 69.273438 85.582031 67.4375 85.574219 C 66.757812 85.570312 66.054688 85.75 65.460938 86.238281 C 64.867188 86.722656 64.398438 87.507812 64.140625 88.667969 L 64.125 88.726562 L 64.144531 88.789062 L 64.394531 88.722656 L 64.648438 88.78125 C 64.894531 87.695312 65.308594 87.035156 65.792969 86.640625 C 66.273438 86.242188 66.839844 86.097656 67.4375 86.09375 C 68.238281 86.09375 69.082031 86.371094 69.714844 86.652344 C 70.035156 86.796875 70.296875 86.9375 70.484375 87.042969 C 70.578125 87.097656 70.652344 87.140625 70.699219 87.171875 L 70.769531 87.214844 L 70.78125 87.222656 L 109.53125 109.171875 L 109.660156 108.945312 L 109.488281 109.140625 C 111.167969 110.628906 111.578125 111.941406 111.582031 112.917969 C 111.582031 113.480469 111.441406 113.941406 111.300781 114.257812 C 111.230469 114.414062 111.160156 114.539062 111.109375 114.621094 L 111.050781 114.710938 L 111.035156 114.730469 L 111.035156 114.734375 L 111.238281 114.898438 L 111.171875 114.644531 L 76.75 123.734375 L 76.816406 123.988281 L 76.785156 123.726562 C 76.667969 123.742188 76.550781 123.746094 76.4375 123.746094 C 75.457031 123.746094 74.695312 123.238281 74.171875 122.707031 C 73.910156 122.445312 73.710938 122.179688 73.578125 121.980469 C 73.511719 121.878906 73.460938 121.796875 73.429688 121.742188 L 73.390625 121.679688 L 73.378906 121.660156 L 73.148438 121.773438 L 73.398438 121.710938 L 64.644531 88.65625 L 64.394531 88.722656 L 64.648438 88.78125 L 64.394531 88.722656 " fill-opacity="1" fill-rule="nonzero"/><path fill="#999697" d="M 107.761719 111.128906 C 108.035156 112.175781 107.410156 113.257812 106.363281 113.535156 C 105.308594 113.808594 104.226562 113.183594 103.953125 112.136719 C 103.675781 111.085938 104.300781 110.007812 105.351562 109.730469 C 106.402344 109.453125 107.480469 110.078125 107.761719 111.128906 " fill-opacity="1" fill-rule="nonzero"/><path fill="#515d65" d="M 107.761719 111.128906 L 107.507812 111.199219 C 107.546875 111.339844 107.5625 111.488281 107.5625 111.628906 C 107.5625 112.382812 107.054688 113.082031 106.292969 113.28125 C 106.148438 113.320312 106 113.339844 105.855469 113.339844 C 105.097656 113.339844 104.402344 112.832031 104.203125 112.066406 C 104.164062 111.917969 104.148438 111.773438 104.148438 111.628906 C 104.148438 110.878906 104.652344 110.183594 105.417969 109.984375 C 105.566406 109.941406 105.710938 109.925781 105.855469 109.925781 C 106.609375 109.925781 107.304688 110.429688 107.507812 111.199219 L 107.761719 111.128906 L 108.011719 111.0625 C 107.746094 110.0625 106.84375 109.402344 105.855469 109.402344 C 105.667969 109.402344 105.476562 109.429688 105.285156 109.480469 C 104.285156 109.742188 103.625 110.644531 103.625 111.628906 C 103.625 111.820312 103.648438 112.011719 103.703125 112.199219 C 103.960938 113.199219 104.863281 113.859375 105.855469 113.859375 C 106.042969 113.859375 106.238281 113.835938 106.429688 113.785156 C 107.425781 113.519531 108.085938 112.617188 108.085938 111.628906 C 108.085938 111.445312 108.0625 111.253906 108.011719 111.0625 L 107.761719 111.128906 " fill-opacity="1" fill-rule="nonzero"/><path fill="#999697" d="M 78.964844 118.734375 C 79.242188 119.785156 78.621094 120.859375 77.566406 121.136719 C 76.515625 121.417969 75.4375 120.789062 75.160156 119.738281 C 74.882812 118.6875 75.511719 117.613281 76.558594 117.335938 C 77.609375 117.058594 78.6875 117.683594 78.964844 118.734375 " fill-opacity="1" fill-rule="nonzero"/><path fill="#515d65" d="M 78.964844 118.734375 L 78.714844 118.800781 C 78.75 118.945312 78.769531 119.09375 78.769531 119.238281 C 78.769531 119.992188 78.265625 120.679688 77.5 120.886719 C 77.355469 120.925781 77.207031 120.941406 77.0625 120.941406 C 76.304688 120.941406 75.613281 120.4375 75.414062 119.671875 C 75.375 119.527344 75.355469 119.382812 75.355469 119.238281 C 75.355469 118.484375 75.863281 117.789062 76.625 117.589844 C 76.773438 117.550781 76.917969 117.53125 77.066406 117.53125 C 77.816406 117.53125 78.507812 118.035156 78.714844 118.800781 L 78.964844 118.734375 L 79.21875 118.664062 C 78.953125 117.667969 78.050781 117.011719 77.066406 117.011719 C 76.875 117.011719 76.683594 117.03125 76.492188 117.082031 C 75.496094 117.347656 74.832031 118.25 74.832031 119.238281 C 74.832031 119.425781 74.859375 119.617188 74.90625 119.808594 C 75.171875 120.804688 76.074219 121.464844 77.0625 121.464844 C 77.253906 121.464844 77.441406 121.441406 77.632812 121.390625 C 78.632812 121.125 79.289062 120.222656 79.289062 119.238281 C 79.289062 119.050781 79.269531 118.859375 79.21875 118.664062 L 78.964844 118.734375 " fill-opacity="1" fill-rule="nonzero"/><path fill="#999697" d="M 71.613281 90.972656 C 71.894531 92.019531 71.269531 93.097656 70.214844 93.375 C 69.160156 93.648438 68.085938 93.027344 67.8125 91.976562 C 67.53125 90.925781 68.160156 89.851562 69.210938 89.574219 C 70.257812 89.292969 71.339844 89.921875 71.613281 90.972656 " fill-opacity="1" fill-rule="nonzero"/><path fill="#515d65" d="M 71.613281 90.972656 L 71.363281 91.039062 C 71.398438 91.1875 71.417969 91.332031 71.417969 91.476562 C 71.417969 92.226562 70.914062 92.921875 70.148438 93.121094 C 70 93.160156 69.855469 93.179688 69.710938 93.179688 C 68.953125 93.179688 68.261719 92.671875 68.0625 91.910156 C 68.023438 91.761719 68.003906 91.613281 68.003906 91.46875 C 68.003906 90.71875 68.511719 90.027344 69.273438 89.824219 C 69.421875 89.785156 69.566406 89.769531 69.710938 89.769531 C 70.46875 89.769531 71.160156 90.273438 71.363281 91.039062 L 71.863281 90.90625 C 71.601562 89.90625 70.703125 89.246094 69.710938 89.246094 C 69.523438 89.246094 69.332031 89.273438 69.140625 89.320312 C 68.144531 89.585938 67.484375 90.484375 67.484375 91.46875 C 67.484375 91.660156 67.507812 91.851562 67.558594 92.042969 C 67.820312 93.039062 68.71875 93.703125 69.710938 93.699219 C 69.898438 93.699219 70.089844 93.675781 70.28125 93.628906 C 71.277344 93.359375 71.941406 92.460938 71.9375 91.476562 C 71.9375 91.289062 71.914062 91.09375 71.863281 90.90625 L 71.613281 90.972656 " fill-opacity="1" fill-rule="nonzero"/><path fill="#181719" d="M 270.949219 173.042969 C 271.695312 175.875 270.003906 178.78125 267.167969 179.53125 L 108.140625 221.539062 C 105.300781 222.285156 102.390625 220.59375 101.640625 217.761719 L 74.9375 116.929688 C 74.1875 114.09375 75.878906 111.1875 78.71875 110.4375 L 237.746094 68.429688 C 240.582031 67.679688 243.496094 69.371094 244.246094 72.207031 L 270.949219 173.042969 " fill-opacity="1" fill-rule="nonzero"/><path fill="#131211" d="M 270.949219 173.042969 L 270.695312 173.109375 C 270.808594 173.539062 270.863281 173.972656 270.863281 174.398438 C 270.863281 176.636719 269.367188 178.683594 267.101562 179.277344 L 108.078125 221.285156 C 107.640625 221.398438 107.207031 221.453125 106.777344 221.453125 C 104.539062 221.453125 102.488281 219.957031 101.894531 217.695312 L 75.191406 116.859375 C 75.074219 116.429688 75.019531 115.992188 75.019531 115.566406 C 75.019531 113.332031 76.515625 111.285156 78.785156 110.6875 L 237.8125 68.683594 C 238.246094 68.566406 238.679688 68.511719 239.105469 68.511719 C 241.34375 68.511719 243.394531 70.007812 243.996094 72.273438 L 270.695312 173.109375 L 271.203125 172.976562 L 244.5 72.140625 C 243.835938 69.644531 241.578125 67.992188 239.105469 67.992188 C 238.636719 67.992188 238.15625 68.054688 237.675781 68.179688 L 78.652344 110.183594 C 76.148438 110.847656 74.496094 113.101562 74.496094 115.566406 C 74.496094 116.035156 74.558594 116.515625 74.683594 116.992188 L 101.386719 217.824219 C 102.050781 220.320312 104.308594 221.972656 106.777344 221.972656 C 107.253906 221.972656 107.730469 221.914062 108.207031 221.785156 L 267.234375 179.78125 C 269.734375 179.121094 271.386719 176.867188 271.386719 174.398438 C 271.386719 173.929688 271.328125 173.453125 271.203125 172.976562 L 270.949219 173.042969 " fill-opacity="1" fill-rule="nonzero"/><path fill="#f8f9fd" d="M 249.679688 81.128906 L 74.625 127.367188 L 68.726562 105.089844 L 243.785156 58.851562 L 249.679688 81.128906 " fill-opacity="1" fill-rule="nonzero"/><path fill="#adb0c6" d="M 249.679688 81.128906 L 249.613281 80.875 L 74.808594 127.046875 L 69.046875 105.273438 L 243.597656 59.167969 L 249.429688 81.195312 L 249.679688 81.128906 L 249.613281 80.875 L 249.679688 81.128906 L 249.933594 81.058594 L 243.96875 58.53125 L 68.40625 104.902344 L 74.441406 127.6875 L 250 81.3125 L 249.933594 81.058594 L 249.679688 81.128906 " fill-opacity="1" fill-rule="nonzero"/><path fill="#191716" d="M 90.683594 121.917969 L 75.554688 125.910156 L 82.03125 103.296875 L 97.160156 99.304688 L 90.683594 121.917969 " fill-opacity="1" fill-rule="nonzero"/><path fill="#191716" d="M 119.8125 114.222656 L 104.683594 118.21875 L 111.164062 95.605469 L 126.292969 91.605469 L 119.8125 114.222656 " fill-opacity="1" fill-rule="nonzero"/><path fill="#191716" d="M 148.941406 106.53125 L 133.816406 110.523438 L 140.292969 87.910156 L 155.417969 83.910156 L 148.941406 106.53125 " fill-opacity="1" fill-rule="nonzero"/><path fill="#191716" d="M 178.070312 98.832031 L 162.941406 102.832031 L 169.421875 80.21875 L 184.546875 76.222656 L 178.070312 98.832031 " fill-opacity="1" fill-rule="nonzero"/><path fill="#191716" d="M 207.195312 91.140625 L 192.070312 95.136719 L 198.546875 72.523438 L 213.671875 68.527344 L 207.195312 91.140625 " fill-opacity="1" fill-rule="nonzero"/><path fill="#191716" d="M 236.324219 83.445312 L 221.199219 87.441406 L 227.675781 64.828125 L 242.804688 60.832031 L 236.324219 83.445312 " fill-opacity="1" fill-rule="nonzero"/><path fill="#ffffff" d="M 92.179688 140.542969 L 240.109375 101.46875 L 239.710938 99.953125 L 91.777344 139.03125 " fill-opacity="1" fill-rule="nonzero"/><path fill="#ffffff" d="M 100.84375 173.265625 L 248.777344 134.1875 L 248.375 132.679688 L 100.441406 171.75 " fill-opacity="1" fill-rule="nonzero"/><path fill="#ffffff" d="M 107.757812 199.375 L 255.691406 160.300781 L 255.289062 158.785156 L 107.359375 197.863281 " fill-opacity="1" fill-rule="nonzero"/><path fill="#ffffff" d="M 133.972656 163.703125 L 140.886719 189.816406 L 142.402344 189.414062 L 135.488281 163.304688 " fill-opacity="1" fill-rule="nonzero"/><path fill="#ffffff" d="M 210.753906 143.421875 L 217.667969 169.535156 L 219.179688 169.136719 L 212.269531 143.023438 " fill-opacity="1" fill-rule="nonzero"/><g clip-path="url(#b536e7b072)"><path fill="#c62436" d="M 241.953125 218.792969 C 241.953125 212.460938 224.683594 207.332031 203.386719 207.332031 C 182.085938 207.332031 164.820312 212.460938 164.820312 218.792969 C 164.820312 225.125 182.085938 230.257812 203.386719 230.257812 C 224.683594 230.257812 241.953125 225.125 241.953125 218.792969 " fill-opacity="1" fill-rule="nonzero"/></g><path fill="#e6e8b0" d="M 249 120.523438 L 157.328125 120.523438 L 164.820312 217.492188 L 241.507812 217.492188 L 249 120.523438 " fill-opacity="1" fill-rule="nonzero"/><path fill="#c62436" d="M 194.046875 121.910156 L 182.816406 121.910156 L 185.277344 218.878906 L 194.046875 218.878906 L 194.046875 121.910156 " fill-opacity="1" fill-rule="nonzero"/><path fill="#c62436" d="M 211.820312 121.910156 L 223.953125 121.910156 L 221.496094 218.878906 L 211.820312 218.878906 L 211.820312 121.910156 " fill-opacity="1" fill-rule="nonzero"/><path fill="#c62436" d="M 170.460938 121.910156 L 157.328125 121.910156 L 164.820312 218.878906 L 174.546875 218.878906 L 170.460938 121.910156 " fill-opacity="1" fill-rule="nonzero"/><path fill="#c62436" d="M 236.621094 121.910156 L 249.445312 121.910156 L 241.953125 218.878906 L 232.535156 218.878906 L 236.621094 121.910156 " fill-opacity="1" fill-rule="nonzero"/><path fill="#c62436" d="M 227.769531 168.035156 C 227.769531 154.449219 216.738281 143.429688 203.128906 143.429688 C 189.523438 143.429688 178.492188 154.449219 178.492188 168.035156 C 178.492188 181.625 189.523438 192.640625 203.128906 192.640625 C 216.738281 192.640625 227.769531 181.625 227.769531 168.035156 " fill-opacity="1" fill-rule="nonzero"/><path fill="#e6e8b0" d="M 221.515625 168.035156 C 221.515625 157.890625 213.285156 149.671875 203.128906 149.671875 C 192.976562 149.671875 184.742188 157.890625 184.742188 168.035156 C 184.742188 178.175781 192.976562 186.398438 203.128906 186.398438 C 213.285156 186.398438 221.515625 178.175781 221.515625 168.035156 " fill-opacity="1" fill-rule="nonzero"/><path fill="#c62436" d="M 241.953125 213.273438 C 234.207031 216.089844 224.683594 218.878906 203.386719 218.878906 C 182.085938 218.878906 173.515625 216.089844 164.820312 213.273438 C 164.820312 214.175781 164.179688 218.789062 165.9375 219.582031 C 171.609375 222.140625 187.125 222.339844 203.386719 222.339844 C 218.601562 222.339844 233.453125 222.457031 239.730469 220.160156 C 242.242188 219.238281 241.953125 214.363281 241.953125 213.273438 " fill-opacity="1" fill-rule="nonzero"/><path fill="#efb11c" d="M 248.074219 223.765625 C 248.914062 222.621094 249.300781 221.117188 248.96875 219.75 C 249.667969 219.316406 250.261719 218.707031 250.648438 217.929688 C 251.742188 215.714844 250.800781 212.953125 248.582031 211.863281 L 248.238281 211.691406 C 248.007812 211.578125 247.777344 211.503906 247.542969 211.433594 C 247.496094 210.007812 246.78125 208.613281 245.105469 207.792969 C 241.59375 206.0625 238.640625 209.125 238.636719 212.117188 C 236.597656 211.566406 234.335938 212.523438 233.371094 214.476562 L 233.238281 214.746094 C 232.378906 216.484375 232.785156 218.535156 234.054688 219.875 C 233.691406 220.226562 233.371094 220.621094 233.140625 221.097656 C 232.046875 223.3125 232.984375 226.070312 235.199219 227.164062 L 235.742188 227.433594 C 237.238281 228.167969 238.96875 227.964844 240.28125 227.089844 C 240.582031 227.367188 240.910156 227.617188 241.292969 227.804688 L 241.5625 227.941406 C 243.78125 229.03125 246.542969 228.097656 247.640625 225.878906 C 247.976562 225.207031 248.097656 224.480469 248.074219 223.765625 " fill-opacity="1" fill-rule="nonzero"/><path fill="#c62436" d="M 192.183594 161.371094 C 192.195312 161.785156 192.28125 162.164062 192.4375 162.511719 C 192.59375 162.859375 192.800781 163.160156 193.050781 163.414062 C 193.308594 163.667969 193.605469 163.867188 193.941406 164.007812 C 194.277344 164.148438 194.640625 164.222656 195.019531 164.222656 C 195.410156 164.222656 195.777344 164.148438 196.128906 164 C 196.476562 163.851562 196.78125 163.648438 197.039062 163.390625 C 197.296875 163.128906 197.5 162.828125 197.648438 162.480469 C 197.792969 162.132812 197.867188 161.761719 197.867188 161.371094 C 197.867188 160.984375 197.792969 160.617188 197.648438 160.273438 C 197.5 159.929688 197.296875 159.628906 197.039062 159.371094 C 196.78125 159.113281 196.476562 158.910156 196.128906 158.761719 C 195.777344 158.617188 195.410156 158.542969 195.019531 158.542969 C 194.640625 158.542969 194.277344 158.613281 193.941406 158.753906 C 193.605469 158.898438 193.308594 159.089844 193.050781 159.332031 C 192.800781 159.574219 192.59375 159.863281 192.4375 160.195312 C 192.28125 160.527344 192.195312 160.882812 192.183594 161.261719 Z M 191.203125 158.019531 C 191.203125 157.882812 191.25 157.765625 191.34375 157.671875 C 191.4375 157.578125 191.554688 157.527344 191.691406 157.527344 C 191.832031 157.527344 191.945312 157.578125 192.039062 157.671875 C 192.136719 157.765625 192.183594 157.882812 192.183594 158.019531 L 192.183594 158.8125 C 192.53125 158.421875 192.949219 158.117188 193.433594 157.902344 C 193.917969 157.683594 194.449219 157.578125 195.019531 157.578125 C 195.558594 157.578125 196.058594 157.675781 196.523438 157.878906 C 196.988281 158.078125 197.390625 158.351562 197.734375 158.699219 C 198.078125 159.046875 198.347656 159.449219 198.550781 159.910156 C 198.75 160.367188 198.851562 160.855469 198.851562 161.371094 C 198.851562 161.902344 198.75 162.394531 198.542969 162.859375 C 198.335938 163.324219 198.058594 163.730469 197.710938 164.078125 C 197.363281 164.425781 196.960938 164.703125 196.5 164.90625 C 196.039062 165.117188 195.558594 165.21875 195.050781 165.21875 C 194.457031 165.199219 193.917969 165.046875 193.433594 164.765625 C 192.949219 164.488281 192.53125 164.160156 192.183594 163.777344 L 192.183594 167.589844 C 192.183594 167.726562 192.136719 167.84375 192.039062 167.9375 C 191.945312 168.03125 191.832031 168.078125 191.691406 168.078125 C 191.554688 168.078125 191.4375 168.03125 191.34375 167.9375 C 191.25 167.84375 191.203125 167.726562 191.203125 167.589844 L 191.203125 158.019531 " fill-opacity="1" fill-rule="nonzero"/><path fill="#c62436" d="M 200.40625 161.402344 C 200.40625 161.796875 200.480469 162.164062 200.625 162.503906 C 200.773438 162.847656 200.976562 163.148438 201.234375 163.40625 C 201.492188 163.664062 201.796875 163.867188 202.140625 164.015625 C 202.480469 164.160156 202.847656 164.238281 203.238281 164.238281 C 203.628906 164.238281 204 164.160156 204.347656 164.015625 C 204.695312 163.867188 205 163.664062 205.257812 163.40625 C 205.515625 163.148438 205.722656 162.847656 205.871094 162.503906 C 206.015625 162.164062 206.089844 161.796875 206.089844 161.402344 C 206.089844 161.015625 206.015625 160.644531 205.871094 160.296875 C 205.722656 159.949219 205.515625 159.648438 205.257812 159.386719 C 205 159.128906 204.695312 158.929688 204.347656 158.777344 C 204 158.628906 203.628906 158.554688 203.238281 158.554688 C 202.847656 158.554688 202.480469 158.628906 202.140625 158.777344 C 201.796875 158.929688 201.492188 159.128906 201.234375 159.386719 C 200.976562 159.648438 200.773438 159.949219 200.625 160.296875 C 200.480469 160.644531 200.40625 161.015625 200.40625 161.402344 Z M 203.269531 157.558594 C 203.777344 157.558594 204.261719 157.664062 204.71875 157.871094 C 205.179688 158.074219 205.582031 158.351562 205.933594 158.699219 C 206.277344 159.046875 206.558594 159.453125 206.761719 159.917969 C 206.96875 160.382812 207.070312 160.878906 207.070312 161.402344 C 207.070312 161.921875 206.972656 162.410156 206.769531 162.871094 C 206.570312 163.328125 206.296875 163.730469 205.953125 164.078125 C 205.609375 164.425781 205.210938 164.699219 204.742188 164.902344 C 204.277344 165.101562 203.777344 165.199219 203.238281 165.199219 C 202.710938 165.199219 202.214844 165.105469 201.757812 164.917969 C 201.296875 164.726562 200.894531 164.460938 200.546875 164.125 C 200.199219 163.789062 199.925781 163.390625 199.722656 162.921875 C 199.519531 162.460938 199.421875 161.953125 199.421875 161.402344 C 199.421875 160.878906 199.519531 160.386719 199.714844 159.925781 C 199.910156 159.46875 200.175781 159.066406 200.519531 158.722656 C 200.867188 158.378906 201.273438 158.109375 201.742188 157.902344 C 202.210938 157.695312 202.722656 157.582031 203.269531 157.558594 " fill-opacity="1" fill-rule="nonzero"/><path fill="#c62436" d="M 208.625 161.371094 C 208.636719 161.785156 208.71875 162.164062 208.878906 162.511719 C 209.035156 162.859375 209.242188 163.160156 209.492188 163.414062 C 209.75 163.667969 210.042969 163.867188 210.382812 164.007812 C 210.71875 164.148438 211.082031 164.222656 211.457031 164.222656 C 211.851562 164.222656 212.21875 164.148438 212.566406 164 C 212.917969 163.851562 213.21875 163.648438 213.480469 163.390625 C 213.734375 163.128906 213.941406 162.828125 214.089844 162.480469 C 214.234375 162.132812 214.308594 161.761719 214.308594 161.371094 C 214.308594 160.984375 214.234375 160.617188 214.089844 160.273438 C 213.941406 159.929688 213.734375 159.628906 213.480469 159.371094 C 213.21875 159.113281 212.917969 158.910156 212.566406 158.761719 C 212.21875 158.617188 211.851562 158.542969 211.457031 158.542969 C 211.082031 158.542969 210.71875 158.613281 210.382812 158.753906 C 210.042969 158.898438 209.75 159.089844 209.492188 159.332031 C 209.242188 159.574219 209.035156 159.863281 208.878906 160.195312 C 208.71875 160.527344 208.636719 160.882812 208.625 161.261719 Z M 207.640625 158.019531 C 207.640625 157.882812 207.6875 157.765625 207.785156 157.671875 C 207.878906 157.578125 207.996094 157.527344 208.132812 157.527344 C 208.273438 157.527344 208.386719 157.578125 208.480469 157.671875 C 208.574219 157.765625 208.625 157.882812 208.625 158.019531 L 208.625 158.8125 C 208.972656 158.421875 209.390625 158.117188 209.875 157.902344 C 210.359375 157.683594 210.886719 157.578125 211.457031 157.578125 C 212 157.578125 212.5 157.675781 212.964844 157.878906 C 213.429688 158.078125 213.832031 158.351562 214.175781 158.699219 C 214.519531 159.046875 214.789062 159.449219 214.992188 159.910156 C 215.191406 160.367188 215.292969 160.855469 215.292969 161.371094 C 215.292969 161.902344 215.1875 162.394531 214.984375 162.859375 C 214.777344 163.324219 214.5 163.730469 214.152344 164.078125 C 213.804688 164.425781 213.398438 164.703125 212.941406 164.90625 C 212.480469 165.117188 212 165.21875 211.488281 165.21875 C 210.898438 165.199219 210.359375 165.046875 209.875 164.765625 C 209.390625 164.488281 208.972656 164.160156 208.625 163.777344 L 208.625 167.589844 C 208.625 167.726562 208.574219 167.84375 208.480469 167.9375 C 208.386719 168.03125 208.273438 168.078125 208.132812 168.078125 C 207.996094 168.078125 207.878906 168.03125 207.785156 167.9375 C 207.6875 167.84375 207.640625 167.726562 207.640625 167.589844 L 207.640625 158.019531 " fill-opacity="1" fill-rule="nonzero"/><path fill="#c62436" d="M 196.121094 171.070312 C 195.855469 170.839844 195.554688 170.652344 195.214844 170.507812 C 194.878906 170.367188 194.515625 170.292969 194.125 170.292969 C 193.730469 170.292969 193.367188 170.367188 193.019531 170.515625 C 192.679688 170.664062 192.378906 170.867188 192.121094 171.125 C 191.863281 171.382812 191.65625 171.6875 191.507812 172.035156 C 191.359375 172.382812 191.289062 172.753906 191.289062 173.140625 C 191.289062 173.535156 191.359375 173.902344 191.507812 174.242188 C 191.65625 174.585938 191.863281 174.886719 192.121094 175.144531 C 192.378906 175.402344 192.679688 175.605469 193.019531 175.75 C 193.367188 175.898438 193.730469 175.972656 194.125 175.972656 C 194.515625 175.972656 194.878906 175.902344 195.214844 175.761719 C 195.554688 175.617188 195.855469 175.417969 196.121094 175.167969 C 196.214844 175.074219 196.332031 175.023438 196.46875 175.023438 C 196.605469 175.023438 196.71875 175.074219 196.816406 175.167969 C 196.910156 175.261719 196.957031 175.378906 196.949219 175.523438 C 196.945312 175.667969 196.886719 175.792969 196.769531 175.910156 C 196.675781 176.003906 196.542969 176.113281 196.382812 176.234375 C 196.21875 176.355469 196.019531 176.46875 195.796875 176.574219 C 195.566406 176.679688 195.316406 176.769531 195.035156 176.835938 C 194.753906 176.90625 194.453125 176.9375 194.125 176.9375 C 193.597656 176.9375 193.101562 176.84375 192.644531 176.65625 C 192.183594 176.464844 191.777344 176.199219 191.433594 175.863281 C 191.082031 175.527344 190.808594 175.125 190.609375 174.660156 C 190.40625 174.199219 190.304688 173.691406 190.304688 173.140625 C 190.304688 172.613281 190.402344 172.121094 190.597656 171.664062 C 190.796875 171.207031 191.066406 170.804688 191.40625 170.460938 C 191.75 170.117188 192.15625 169.84375 192.625 169.636719 C 193.097656 169.433594 193.605469 169.320312 194.15625 169.296875 C 194.472656 169.296875 194.765625 169.335938 195.035156 169.417969 C 195.304688 169.496094 195.546875 169.589844 195.761719 169.699219 C 195.980469 169.8125 196.171875 169.929688 196.34375 170.058594 C 196.511719 170.183594 196.644531 170.292969 196.75 170.390625 C 196.816406 170.441406 196.871094 170.542969 196.917969 170.683594 C 196.96875 170.824219 196.929688 170.953125 196.816406 171.070312 C 196.71875 171.167969 196.605469 171.210938 196.46875 171.210938 C 196.332031 171.210938 196.214844 171.167969 196.121094 171.070312 " fill-opacity="1" fill-rule="nonzero"/><path fill="#c62436" d="M 198.210938 173.125 C 198.210938 173.515625 198.285156 173.882812 198.433594 174.226562 C 198.578125 174.566406 198.785156 174.867188 199.042969 175.128906 C 199.300781 175.386719 199.601562 175.589844 199.945312 175.738281 C 200.289062 175.886719 200.65625 175.960938 201.046875 175.960938 C 201.4375 175.960938 201.804688 175.886719 202.152344 175.738281 C 202.503906 175.589844 202.808594 175.386719 203.066406 175.128906 C 203.324219 174.867188 203.527344 174.566406 203.675781 174.226562 C 203.820312 173.882812 203.894531 173.515625 203.894531 173.125 C 203.894531 172.734375 203.820312 172.367188 203.675781 172.019531 C 203.527344 171.671875 203.324219 171.367188 203.066406 171.109375 C 202.808594 170.851562 202.503906 170.648438 202.152344 170.5 C 201.804688 170.355469 201.4375 170.28125 201.046875 170.28125 C 200.65625 170.28125 200.289062 170.355469 199.945312 170.5 C 199.601562 170.648438 199.300781 170.851562 199.042969 171.109375 C 198.785156 171.367188 198.578125 171.671875 198.433594 172.019531 C 198.285156 172.367188 198.210938 172.734375 198.210938 173.125 Z M 201.078125 169.285156 C 201.585938 169.285156 202.066406 169.386719 202.527344 169.589844 C 202.984375 169.796875 203.390625 170.074219 203.738281 170.421875 C 204.085938 170.769531 204.363281 171.175781 204.570312 171.640625 C 204.777344 172.101562 204.878906 172.601562 204.878906 173.125 C 204.878906 173.640625 204.78125 174.128906 204.578125 174.589844 C 204.375 175.046875 204.105469 175.449219 203.761719 175.800781 C 203.417969 176.148438 203.015625 176.421875 202.550781 176.625 C 202.085938 176.820312 201.585938 176.925781 201.046875 176.925781 C 200.519531 176.925781 200.023438 176.828125 199.566406 176.636719 C 199.105469 176.449219 198.703125 176.1875 198.355469 175.847656 C 198.003906 175.511719 197.730469 175.109375 197.53125 174.644531 C 197.328125 174.179688 197.230469 173.675781 197.230469 173.125 C 197.230469 172.601562 197.324219 172.105469 197.523438 171.648438 C 197.71875 171.1875 197.984375 170.789062 198.328125 170.445312 C 198.671875 170.105469 199.078125 169.828125 199.550781 169.621094 C 200.019531 169.417969 200.53125 169.304688 201.078125 169.285156 " fill-opacity="1" fill-rule="nonzero"/><path fill="#c62436" d="M 205.417969 169.742188 C 205.417969 169.605469 205.464844 169.488281 205.558594 169.394531 C 205.65625 169.296875 205.773438 169.25 205.910156 169.25 C 206.046875 169.25 206.160156 169.296875 206.253906 169.394531 C 206.351562 169.488281 206.398438 169.605469 206.398438 169.742188 L 206.398438 170.515625 C 206.734375 170.136719 207.144531 169.835938 207.617188 169.605469 C 208.09375 169.378906 208.609375 169.261719 209.171875 169.25 C 209.339844 169.25 209.472656 169.296875 209.578125 169.394531 C 209.675781 169.488281 209.726562 169.605469 209.726562 169.742188 C 209.726562 169.878906 209.675781 169.992188 209.578125 170.089844 C 209.472656 170.183594 209.339844 170.230469 209.171875 170.230469 C 208.792969 170.242188 208.4375 170.324219 208.109375 170.46875 C 207.78125 170.617188 207.496094 170.8125 207.246094 171.054688 C 206.996094 171.296875 206.800781 171.582031 206.644531 171.90625 C 206.492188 172.238281 206.410156 172.582031 206.398438 172.953125 L 206.398438 176.449219 C 206.398438 176.585938 206.351562 176.699219 206.253906 176.796875 C 206.160156 176.890625 206.046875 176.9375 205.910156 176.9375 C 205.773438 176.9375 205.65625 176.890625 205.558594 176.796875 C 205.464844 176.699219 205.417969 176.585938 205.417969 176.449219 L 205.417969 169.742188 " fill-opacity="1" fill-rule="nonzero"/><path fill="#c62436" d="M 215.570312 176.9375 C 215.433594 176.9375 215.316406 176.890625 215.222656 176.796875 C 215.125 176.699219 215.078125 176.585938 215.078125 176.449219 L 215.078125 172.097656 C 215.078125 171.84375 215.03125 171.605469 214.925781 171.378906 C 214.828125 171.152344 214.695312 170.953125 214.523438 170.785156 C 214.355469 170.617188 214.15625 170.484375 213.933594 170.390625 C 213.703125 170.292969 213.464844 170.246094 213.210938 170.246094 C 212.957031 170.246094 212.722656 170.292969 212.496094 170.390625 C 212.273438 170.484375 212.082031 170.613281 211.910156 170.769531 C 211.742188 170.925781 211.609375 171.113281 211.515625 171.332031 C 211.421875 171.546875 211.367188 171.777344 211.355469 172.019531 L 211.355469 176.449219 C 211.355469 176.585938 211.308594 176.699219 211.214844 176.796875 C 211.121094 176.890625 211.003906 176.9375 210.867188 176.9375 C 210.726562 176.9375 210.613281 176.890625 210.515625 176.796875 C 210.421875 176.699219 210.375 176.585938 210.375 176.449219 L 210.375 169.742188 C 210.375 169.605469 210.421875 169.488281 210.515625 169.394531 C 210.613281 169.296875 210.726562 169.25 210.867188 169.25 C 211.003906 169.25 211.121094 169.296875 211.214844 169.394531 C 211.308594 169.488281 211.355469 169.605469 211.355469 169.742188 L 211.355469 169.949219 C 211.601562 169.734375 211.878906 169.566406 212.195312 169.441406 C 212.511719 169.316406 212.851562 169.25 213.210938 169.25 C 213.601562 169.25 213.972656 169.324219 214.320312 169.472656 C 214.667969 169.621094 214.972656 169.824219 215.226562 170.082031 C 215.488281 170.339844 215.691406 170.644531 215.839844 170.988281 C 215.988281 171.339844 216.0625 171.707031 216.0625 172.097656 L 216.0625 176.449219 C 216.0625 176.585938 216.011719 176.699219 215.917969 176.796875 C 215.824219 176.890625 215.707031 176.9375 215.570312 176.9375 " fill-opacity="1" fill-rule="nonzero"/><path fill="#c62436" d="M 249.980469 120.523438 C 249.980469 114.195312 229.339844 109.0625 203.878906 109.0625 C 178.414062 109.0625 157.773438 114.195312 157.773438 120.523438 C 157.773438 126.855469 178.414062 131.988281 203.878906 131.988281 C 229.339844 131.988281 249.980469 126.855469 249.980469 120.523438 " fill-opacity="1" fill-rule="nonzero"/><path fill="#b8822a" d="M 227.023438 94.660156 C 227.339844 94.046875 227.535156 93.363281 227.535156 92.636719 C 227.535156 91.566406 227.132812 90.585938 226.492188 89.8125 C 227.4375 87.152344 226.070312 83.574219 222.394531 83.574219 C 220.878906 83.574219 219.757812 84.183594 219.027344 85.085938 C 218.570312 85.089844 218.160156 85.148438 217.777344 85.253906 C 217.046875 84.425781 215.96875 83.875 214.527344 83.875 C 209.703125 83.875 208.855469 90.042969 212 92.199219 C 210.808594 93.953125 210.984375 96.410156 212.527344 97.953125 C 212.632812 98.058594 212.730469 98.15625 212.832031 98.257812 C 214.519531 99.941406 217.296875 99.984375 219.0625 98.410156 C 219.5 100.191406 220.914062 101.695312 223.300781 101.695312 C 227.367188 101.695312 228.601562 97.332031 227.023438 94.660156 " fill-opacity="1" fill-rule="nonzero"/><path fill="#d29430" d="M 195.878906 89.21875 C 195.464844 89.21875 195.085938 89.269531 194.730469 89.351562 C 196.351562 86.683594 195.125 82.269531 191.039062 82.269531 C 187.5 82.269531 186.105469 85.578125 186.84375 88.195312 C 186.445312 88.078125 186.027344 88.007812 185.59375 88.007812 C 184.277344 88.007812 183.097656 88.597656 182.261719 89.511719 C 181.34375 90.34375 180.757812 91.523438 180.757812 92.839844 C 180.757812 95.238281 182.714844 97.261719 185.101562 97.351562 C 185.671875 98.25 186.550781 98.925781 187.578125 99.253906 C 187.476562 99.621094 187.410156 100 187.410156 100.394531 L 187.410156 100.695312 C 187.410156 103.164062 189.472656 105.226562 191.945312 105.226562 C 194.417969 105.226562 196.480469 103.164062 196.480469 100.695312 L 196.480469 100.394531 C 196.480469 99.628906 196.269531 98.914062 195.921875 98.277344 C 201.726562 98.234375 201.714844 89.21875 195.878906 89.21875 " fill-opacity="1" fill-rule="nonzero"/><path fill="#efb11c" d="M 171.933594 109.878906 C 172.433594 107.332031 171.003906 104.339844 167.644531 104.339844 C 165.964844 104.339844 164.765625 105.089844 164.054688 106.15625 C 163.535156 105.671875 162.902344 105.304688 162.195312 105.105469 C 159.773438 104.441406 157.324219 105.90625 156.617188 108.273438 C 156.152344 109.816406 156.304688 111.507812 156.984375 112.9375 C 156.378906 113.316406 155.867188 113.820312 155.5625 114.441406 C 155.195312 115.179688 154.777344 115.949219 154.609375 116.765625 C 154.246094 118.515625 154.542969 120.234375 155.824219 121.554688 C 156.789062 122.550781 158.03125 122.914062 159.375 123 L 159.570312 123.003906 C 159.933594 123.078125 160.304688 123.09375 160.671875 123.070312 L 160.6875 123.070312 C 161.257812 123.109375 161.851562 122.980469 162.398438 122.746094 C 162.511719 122.890625 162.625 123.03125 162.75 123.171875 C 163.820312 124.363281 165.761719 124.820312 167.273438 124.367188 C 168.25 124.074219 168.898438 123.644531 169.644531 122.953125 C 170.980469 121.707031 171.265625 119.730469 170.636719 118.097656 C 174.425781 117.175781 174.855469 111.8125 171.933594 109.878906 " fill-opacity="1" fill-rule="nonzero"/><path fill="#d29430" d="M 178.53125 98.300781 C 177.308594 98.300781 176.339844 98.699219 175.628906 99.328125 C 175.152344 98.375 174.347656 97.609375 173.375 97.179688 L 173.257812 97.105469 C 172.214844 96.492188 170.9375 96.328125 169.761719 96.648438 C 168.632812 96.960938 167.644531 97.71875 167.054688 98.734375 C 166.898438 99.09375 166.75 99.453125 166.59375 99.816406 C 166.378906 100.617188 166.378906 101.421875 166.59375 102.222656 C 166.6875 102.890625 167.113281 103.660156 167.65625 104.265625 C 163.355469 105.667969 163.855469 113.101562 169.152344 113.101562 C 169.496094 113.101562 169.8125 113.058594 170.113281 113.003906 C 170.363281 115.242188 172.308594 117.03125 174.601562 117.03125 C 175.917969 117.03125 177.101562 116.4375 177.933594 115.523438 C 178.847656 114.691406 179.4375 113.511719 179.4375 112.199219 C 179.4375 111.761719 179.355469 111.351562 179.238281 110.949219 C 180.234375 109.921875 180.640625 108.402344 180.449219 106.972656 C 184.289062 105.242188 183.652344 98.300781 178.53125 98.300781 " fill-opacity="1" fill-rule="nonzero"/><path fill="#f1c446" d="M 185.972656 108.484375 C 184.300781 108.484375 182.832031 109.441406 182.042969 110.816406 C 181.574219 110.511719 181.046875 110.28125 180.480469 110.171875 C 179.789062 108.539062 178.15625 107.363281 176.296875 107.363281 L 175.992188 107.363281 C 173.519531 107.363281 171.453125 109.421875 171.453125 111.894531 C 171.453125 113.15625 172 114.308594 172.859375 115.140625 C 171.015625 115.714844 169.640625 117.4375 169.640625 119.445312 C 169.640625 121.917969 171.703125 123.976562 174.175781 123.976562 L 174.480469 123.976562 C 175.421875 123.976562 176.296875 123.675781 177.027344 123.175781 C 177.5 125.171875 179.3125 126.695312 181.4375 126.695312 C 183.910156 126.695312 185.972656 124.632812 185.972656 122.164062 L 185.972656 121.863281 C 185.972656 121.0625 185.746094 120.3125 185.367188 119.65625 C 186.292969 119.246094 187.046875 118.523438 187.527344 117.636719 C 189.25 116.992188 190.511719 115.328125 190.511719 113.402344 L 190.511719 113.019531 C 190.511719 110.546875 188.445312 108.484375 185.972656 108.484375 " fill-opacity="1" fill-rule="nonzero"/><path fill="#f1c446" d="M 230.253906 110.902344 C 228.582031 110.902344 227.113281 111.855469 226.324219 113.230469 C 225.851562 112.925781 225.328125 112.699219 224.761719 112.585938 C 224.070312 110.953125 222.4375 109.78125 220.578125 109.78125 L 220.273438 109.78125 C 217.796875 109.78125 215.734375 111.84375 215.734375 114.3125 C 215.734375 115.574219 216.28125 116.726562 217.140625 117.554688 C 215.296875 118.132812 213.921875 119.851562 213.921875 121.863281 C 213.921875 124.332031 215.980469 126.394531 218.457031 126.394531 L 218.761719 126.394531 C 219.699219 126.394531 220.578125 126.097656 221.308594 125.589844 C 221.777344 127.585938 223.589844 129.113281 225.714844 129.113281 C 228.191406 129.113281 230.253906 127.054688 230.253906 124.582031 L 230.253906 124.277344 C 230.253906 123.476562 230.027344 122.730469 229.648438 122.074219 C 230.574219 121.660156 231.324219 120.941406 231.808594 120.054688 C 233.53125 119.40625 234.792969 117.746094 234.792969 115.820312 L 234.792969 115.433594 C 234.792969 112.964844 232.726562 110.902344 230.253906 110.902344 " fill-opacity="1" fill-rule="nonzero"/><path fill="#efb11c" d="M 194.386719 100.003906 C 194.1875 98.402344 193.148438 97.042969 191.714844 96.40625 C 191.914062 95.90625 192.023438 95.367188 192.023438 94.804688 C 192.023438 92.335938 189.957031 90.273438 187.484375 90.273438 L 186.925781 90.273438 C 184.585938 90.273438 182.632812 92.128906 182.429688 94.421875 C 181.671875 95.074219 181.121094 95.960938 180.917969 96.964844 C 175.789062 97.484375 175.765625 105.402344 180.871094 105.949219 C 177.933594 108.210938 178.816406 114.136719 183.554688 114.136719 C 184.164062 114.136719 184.707031 114.027344 185.1875 113.851562 C 185.8125 114.222656 186.578125 114.441406 187.484375 114.441406 C 190.957031 114.441406 192.367188 111.253906 191.722656 108.660156 C 191.921875 108.6875 192.121094 108.699219 192.324219 108.699219 L 192.628906 108.699219 C 195.101562 108.699219 197.167969 106.636719 197.167969 104.171875 C 197.167969 102.320312 196.007812 100.699219 194.386719 100.003906 " fill-opacity="1" fill-rule="nonzero"/><path fill="#d29430" d="M 195.089844 110.828125 C 194.632812 110.527344 194.121094 110.304688 193.570312 110.203125 C 194.710938 108.855469 195.019531 106.886719 194.191406 105.230469 C 193.082031 103.019531 190.3125 102.101562 188.101562 103.207031 L 187.378906 103.570312 C 185.167969 104.675781 184.246094 107.441406 185.355469 109.648438 L 185.355469 109.652344 C 184.820312 109.703125 184.285156 109.847656 183.777344 110.097656 L 183.507812 110.234375 C 181.296875 111.34375 180.375 114.109375 181.480469 116.316406 C 181.9375 117.230469 182.6875 117.902344 183.558594 118.324219 C 182.925781 119.570312 182.847656 121.082031 183.515625 122.394531 C 184.757812 124.835938 187.546875 125.765625 190.011719 124.550781 C 190.34375 124.386719 190.636719 124.175781 190.90625 123.9375 C 192.019531 125.738281 194.203125 126.847656 196.636719 125.628906 C 199.507812 124.191406 199.574219 121.105469 198.191406 119.046875 C 201.996094 116.4375 199.277344 110.339844 195.089844 110.828125 " fill-opacity="1" fill-rule="nonzero"/><path fill="#efb11c" d="M 209.59375 108.898438 C 209.847656 107.5 209.523438 105.980469 208.617188 104.898438 C 209.054688 104.207031 209.320312 103.394531 209.320312 102.527344 C 209.320312 100.0625 207.253906 98 204.78125 98 L 204.394531 98 C 204.144531 98 203.902344 98.035156 203.65625 98.078125 C 202.984375 96.816406 201.726562 95.882812 199.859375 95.882812 C 195.945312 95.882812 194.652344 99.933594 195.972656 102.617188 C 193.898438 103.027344 192.292969 104.882812 192.292969 107.0625 L 192.292969 107.363281 C 192.292969 109.296875 193.5625 110.960938 195.296875 111.605469 C 195.128906 112.074219 195.015625 112.578125 195.015625 113.101562 C 195.015625 115.574219 197.082031 117.636719 199.554688 117.636719 L 200.160156 117.636719 C 201.828125 117.636719 203.289062 116.6875 204.078125 115.328125 C 204.46875 115.441406 204.875 115.519531 205.300781 115.519531 L 205.605469 115.519531 C 208.078125 115.519531 210.140625 113.457031 210.140625 110.988281 C 210.140625 110.234375 209.933594 109.53125 209.59375 108.898438 " fill-opacity="1" fill-rule="nonzero"/><path fill="#efb11c" d="M 206.75 91.402344 C 206.976562 90.863281 207.117188 90.28125 207.117188 89.667969 C 207.117188 87.199219 205.054688 85.136719 202.578125 85.136719 L 202.277344 85.136719 C 199.804688 85.136719 197.742188 87.199219 197.742188 89.667969 C 197.742188 89.773438 197.761719 89.871094 197.773438 89.96875 L 197.742188 89.96875 C 195.265625 89.96875 193.203125 92.03125 193.203125 94.503906 C 193.203125 96.535156 194.609375 98.265625 196.480469 98.828125 C 196.847656 100.714844 198.273438 102.355469 200.765625 102.355469 C 202.609375 102.355469 203.863281 101.457031 204.542969 100.226562 L 204.699219 100.242188 C 207.171875 100.242188 209.234375 98.183594 209.234375 95.710938 L 209.234375 95.40625 C 209.234375 93.675781 208.207031 92.164062 206.75 91.402344 " fill-opacity="1" fill-rule="nonzero"/><path fill="#d29430" d="M 239.804688 93.921875 C 239.433594 93.742188 239.074219 93.617188 238.71875 93.539062 C 241.351562 91.863281 242.207031 87.359375 238.542969 85.554688 C 235.367188 83.992188 232.652344 86.34375 232.15625 89.019531 C 231.847656 88.734375 231.503906 88.488281 231.117188 88.296875 C 229.933594 87.714844 228.613281 87.722656 227.460938 88.179688 C 226.273438 88.519531 225.21875 89.316406 224.636719 90.496094 C 223.574219 92.640625 224.4375 95.328125 226.535156 96.464844 C 226.652344 97.519531 227.136719 98.515625 227.914062 99.261719 C 227.664062 99.546875 227.4375 99.855469 227.261719 100.210938 L 227.125 100.480469 C 226.035156 102.695312 226.96875 105.453125 229.191406 106.546875 C 231.410156 107.636719 234.171875 106.703125 235.261719 104.484375 L 235.398438 104.214844 C 235.738281 103.527344 235.859375 102.796875 235.832031 102.070312 C 241.058594 104.59375 245.039062 96.5 239.804688 93.921875 " fill-opacity="1" fill-rule="nonzero"/><path fill="#d29430" d="M 222.300781 96.660156 C 221.203125 96.117188 220.160156 96.050781 219.246094 96.300781 C 219.238281 95.234375 218.855469 94.191406 218.171875 93.375 L 218.101562 93.257812 C 217.433594 92.246094 216.363281 91.535156 215.164062 91.304688 C 214.011719 91.082031 212.792969 91.332031 211.8125 91.976562 C 211.519531 92.230469 211.21875 92.488281 210.925781 92.746094 C 210.375 93.371094 210.019531 94.089844 209.859375 94.90625 C 209.640625 95.546875 209.683594 96.421875 209.902344 97.207031 C 205.425781 96.566406 202.585938 103.453125 207.335938 105.792969 C 207.644531 105.945312 207.945312 106.046875 208.242188 106.128906 C 207.476562 108.246094 208.429688 110.710938 210.484375 111.71875 C 211.667969 112.300781 212.984375 112.292969 214.136719 111.84375 C 215.324219 111.5 216.378906 110.703125 216.960938 109.523438 C 217.152344 109.136719 217.261719 108.726562 217.332031 108.320312 C 218.679688 107.832031 219.71875 106.652344 220.179688 105.285156 C 224.394531 105.425781 226.894531 98.921875 222.300781 96.660156 " fill-opacity="1" fill-rule="nonzero"/><path fill="#f1c569" d="M 229.117188 114.085938 C 230.726562 114.167969 232.253906 113.378906 233.128906 112.082031 C 233.585938 112.363281 234.097656 112.5625 234.65625 112.664062 C 237.085938 113.089844 239.480469 111.417969 239.90625 108.984375 L 240.003906 108.4375 C 240.414062 106.132812 238.921875 103.890625 236.695312 103.292969 C 236.183594 102.433594 235.40625 101.738281 234.445312 101.367188 C 234.828125 96.230469 227.019531 94.828125 225.59375 99.761719 C 223.878906 96.476562 217.882812 96.316406 217.054688 100.980469 C 216.953125 101.578125 216.964844 102.128906 217.054688 102.632812 C 216.582031 103.183594 216.234375 103.902344 216.074219 104.792969 C 215.472656 108.207031 218.371094 110.148438 221.042969 109.960938 C 220.980469 110.152344 220.929688 110.347656 220.898438 110.550781 L 220.847656 110.847656 C 220.414062 113.277344 222.089844 115.667969 224.523438 116.097656 C 226.351562 116.417969 228.148438 115.558594 229.117188 114.085938 " fill-opacity="1" fill-rule="nonzero"/><path fill="#efb11c" d="M 248.472656 102.925781 C 248.914062 102.542969 249.300781 102.082031 249.570312 101.53125 C 250.664062 99.316406 249.726562 96.554688 247.507812 95.464844 L 247.234375 95.328125 C 245.019531 94.238281 242.253906 95.175781 241.164062 97.394531 C 241.113281 97.484375 241.089844 97.582031 241.054688 97.671875 L 241.027344 97.664062 C 238.808594 96.570312 236.046875 97.507812 234.949219 99.722656 C 234.050781 101.542969 234.542969 103.71875 235.972656 105.046875 C 235.472656 106.902344 236.023438 109.003906 238.257812 110.105469 C 239.910156 110.917969 241.433594 110.664062 242.585938 109.859375 L 242.722656 109.945312 C 244.9375 111.035156 247.703125 110.101562 248.792969 107.882812 L 248.929688 107.613281 C 249.699219 106.058594 249.445312 104.25 248.472656 102.925781 " fill-opacity="1" fill-rule="nonzero"/><path fill="#f1c446" d="M 210.769531 114.042969 C 212.921875 111.480469 211.820312 106.4375 207.449219 106.4375 C 206.085938 106.4375 205.042969 106.929688 204.316406 107.683594 C 203.785156 107.46875 203.210938 107.34375 202.609375 107.34375 C 200.136719 107.34375 198.074219 109.402344 198.074219 111.875 L 198.074219 112.175781 C 198.074219 112.9375 198.289062 113.65625 198.636719 114.292969 C 195.777344 116.59375 196.695312 122.445312 201.398438 122.445312 C 202.996094 122.445312 204.148438 121.765625 204.875 120.785156 C 205.601562 121.765625 206.757812 122.445312 208.355469 122.445312 C 213.242188 122.445312 214.046875 116.128906 210.769531 114.042969 " fill-opacity="1" fill-rule="nonzero"/><path fill="#efb11c" d="M 223.042969 111.859375 C 225.121094 109.277344 224 104.320312 219.671875 104.320312 C 217.371094 104.320312 215.980469 105.71875 215.488281 107.414062 C 214.949219 107.175781 214.332031 107.039062 213.621094 107.039062 C 208.910156 107.039062 207.992188 112.917969 210.875 115.203125 C 209.972656 116.035156 209.386719 117.214844 209.386719 118.519531 L 209.386719 119.121094 C 209.386719 121.589844 211.449219 123.65625 213.921875 123.65625 C 214.695312 123.65625 215.417969 123.4375 216.058594 123.082031 C 216.894531 123.984375 218.074219 124.558594 219.367188 124.558594 C 221.257812 124.558594 222.886719 123.363281 223.5625 121.707031 C 224.296875 120.433594 224.371094 118.871094 223.78125 117.546875 C 224.746094 115.757812 224.492188 113.300781 223.042969 111.859375 " fill-opacity="1" fill-rule="nonzero"/><path fill="#f1c446" d="M 246.742188 111.378906 L 246.640625 111.386719 C 246.3125 111.257812 245.945312 111.179688 245.554688 111.132812 C 245.148438 109.347656 243.777344 107.820312 241.441406 107.757812 C 240.757812 106.535156 239.503906 105.636719 237.667969 105.636719 C 234.320312 105.636719 232.898438 108.601562 233.382812 111.140625 C 230.976562 111.460938 229.214844 113.394531 229.199219 115.910156 C 229.183594 118.378906 231.273438 120.441406 233.738281 120.441406 C 234.265625 120.441406 234.765625 120.328125 235.238281 120.160156 C 234.628906 122.742188 236.042969 125.878906 239.484375 125.878906 C 243.007812 125.878906 244.402344 122.59375 243.683594 119.976562 C 243.933594 120.046875 244.203125 120.09375 244.484375 120.117188 C 245.152344 120.515625 245.925781 120.742188 246.742188 120.742188 C 249.21875 120.742188 251.277344 118.679688 251.277344 116.210938 L 251.277344 115.910156 C 251.277344 113.4375 249.21875 111.378906 246.742188 111.378906 " fill-opacity="1" fill-rule="nonzero"/><path fill="#efb11c" d="M 241.539062 115.519531 L 241.539062 115.21875 C 241.539062 112.980469 239.84375 111.09375 237.6875 110.757812 C 236.929688 109.296875 235.414062 108.269531 233.675781 108.269531 C 232.199219 108.269531 230.882812 109.011719 230.050781 110.128906 C 229.851562 110.097656 229.648438 110.082031 229.441406 110.082031 C 226.96875 110.082031 224.902344 112.144531 224.902344 114.609375 L 224.902344 114.914062 C 224.902344 116.007812 225.316406 117.007812 225.984375 117.789062 C 225.6875 118.390625 225.507812 119.046875 225.507812 119.746094 C 225.507812 122.21875 227.574219 124.277344 230.046875 124.277344 L 230.347656 124.277344 C 230.808594 124.277344 231.246094 124.1875 231.667969 124.054688 C 232.503906 125.097656 233.769531 125.789062 235.191406 125.789062 L 235.792969 125.789062 C 238.265625 125.789062 240.328125 123.726562 240.328125 121.257812 C 240.328125 120.472656 240.101562 119.742188 239.738281 119.089844 C 240.820312 118.257812 241.539062 116.964844 241.539062 115.519531 " fill-opacity="1" fill-rule="nonzero"/><g fill="#ff8d55" fill-opacity="0.4"><g transform="translate(61.621378, 315.611931)"><g><path d="M 54.703125 -59.460938 L 42.515625 -59.460938 L 29.953125 -29.507812 L 17.464844 -59.460938 L 5.203125 -59.460938 L 5.203125 0 L 16.351562 0 L 16.351562 -32.851562 L 23.859375 -14.9375 L 36.046875 -14.9375 L 43.628906 -33 L 43.628906 0 L 54.703125 0 Z M 54.703125 -59.460938 "/></g></g></g><g fill="#ff8d55" fill-opacity="0.4"><g transform="translate(121.52272, 315.611931)"><g><path d="M 33 -60.203125 C 16.203125 -60.203125 2.601562 -46.601562 2.601562 -29.804688 C 2.601562 -13.007812 16.203125 0.59375 33 0.59375 C 49.796875 0.59375 63.398438 -13.007812 63.398438 -29.804688 C 63.398438 -46.601562 49.796875 -60.203125 33 -60.203125 Z M 33 -48.832031 C 43.554688 -48.832031 50.988281 -40.285156 50.988281 -29.804688 C 50.988281 -19.324219 43.554688 -10.777344 33 -10.777344 C 22.519531 -10.777344 15.089844 -19.324219 15.089844 -29.804688 C 15.089844 -40.285156 22.519531 -48.832031 33 -48.832031 Z M 33 -48.832031 "/></g></g></g><g fill="#ff8d55" fill-opacity="0.4"><g transform="translate(187.518241, 315.611931)"><g><path d="M 51.582031 -42.441406 C 51.582031 -51.878906 46.007812 -59.460938 30.769531 -59.460938 L 5.203125 -59.460938 L 5.203125 0 L 30.769531 0 C 46.453125 0 51.582031 -10.109375 51.582031 -19.472656 C 51.582031 -23.859375 50.390625 -27.871094 47.566406 -30.917969 C 50.464844 -33.890625 51.582031 -37.980469 51.582031 -42.441406 Z M 16.351562 -48.386719 L 34.636719 -48.386719 C 38.128906 -48.386719 40.507812 -45.339844 40.507812 -42.441406 C 40.507812 -39.914062 38.5 -36.492188 34.636719 -36.492188 L 16.351562 -36.492188 Z M 33.519531 -11.148438 L 16.351562 -11.148438 L 16.351562 -25.417969 L 33.519531 -25.417969 C 36.941406 -25.417969 40.507812 -23.1875 40.507812 -18.285156 C 40.507812 -13.378906 36.789062 -11.148438 33.519531 -11.148438 Z M 33.519531 -11.148438 "/></g></g></g><g fill="#ff8d55" fill-opacity="0.4"><g transform="translate(244.298169, 315.611931)"><g><path d="M 39.691406 -48.460938 L 39.691406 -59.535156 L 5.203125 -59.535156 L 5.203125 0 L 39.691406 0 L 39.691406 -11.074219 L 16.351562 -11.074219 L 16.351562 -24.304688 L 30.25 -24.304688 L 30.25 -35.378906 L 16.351562 -35.378906 L 16.351562 -48.460938 Z M 39.691406 -48.460938 "/></g></g></g><g fill="#e2a165" fill-opacity="1"><g transform="translate(65.958313, 313.947134)"><g><path d="M 54.703125 -59.460938 L 42.515625 -59.460938 L 29.953125 -29.507812 L 17.464844 -59.460938 L 5.203125 -59.460938 L 5.203125 0 L 16.351562 0 L 16.351562 -32.851562 L 23.859375 -14.9375 L 36.046875 -14.9375 L 43.628906 -33 L 43.628906 0 L 54.703125 0 Z M 54.703125 -59.460938 "/></g></g></g><g fill="#e2a165" fill-opacity="1"><g transform="translate(125.859655, 313.947134)"><g><path d="M 33 -60.203125 C 16.203125 -60.203125 2.601562 -46.601562 2.601562 -29.804688 C 2.601562 -13.007812 16.203125 0.59375 33 0.59375 C 49.796875 0.59375 63.398438 -13.007812 63.398438 -29.804688 C 63.398438 -46.601562 49.796875 -60.203125 33 -60.203125 Z M 33 -48.832031 C 43.554688 -48.832031 50.988281 -40.285156 50.988281 -29.804688 C 50.988281 -19.324219 43.554688 -10.777344 33 -10.777344 C 22.519531 -10.777344 15.089844 -19.324219 15.089844 -29.804688 C 15.089844 -40.285156 22.519531 -48.832031 33 -48.832031 Z M 33 -48.832031 "/></g></g></g><g fill="#e2a165" fill-opacity="1"><g transform="translate(191.855176, 313.947134)"><g><path d="M 51.582031 -42.441406 C 51.582031 -51.878906 46.007812 -59.460938 30.769531 -59.460938 L 5.203125 -59.460938 L 5.203125 0 L 30.769531 0 C 46.453125 0 51.582031 -10.109375 51.582031 -19.472656 C 51.582031 -23.859375 50.390625 -27.871094 47.566406 -30.917969 C 50.464844 -33.890625 51.582031 -37.980469 51.582031 -42.441406 Z M 16.351562 -48.386719 L 34.636719 -48.386719 C 38.128906 -48.386719 40.507812 -45.339844 40.507812 -42.441406 C 40.507812 -39.914062 38.5 -36.492188 34.636719 -36.492188 L 16.351562 -36.492188 Z M 33.519531 -11.148438 L 16.351562 -11.148438 L 16.351562 -25.417969 L 33.519531 -25.417969 C 36.941406 -25.417969 40.507812 -23.1875 40.507812 -18.285156 C 40.507812 -13.378906 36.789062 -11.148438 33.519531 -11.148438 Z M 33.519531 -11.148438 "/></g></g></g><g fill="#e2a165" fill-opacity="1"><g transform="translate(248.635104, 313.947134)"><g><path d="M 39.691406 -48.460938 L 39.691406 -59.535156 L 5.203125 -59.535156 L 5.203125 0 L 39.691406 0 L 39.691406 -11.074219 L 16.351562 -11.074219 L 16.351562 -24.304688 L 30.25 -24.304688 L 30.25 -35.378906 L 16.351562 -35.378906 L 16.351562 -48.460938 Z M 39.691406 -48.460938 "/></g></g></g><g fill="#ffffff" fill-opacity="0.4"><g transform="translate(50.398349, 387.986123)"><g><path d="M 54.703125 -59.460938 L 42.515625 -59.460938 L 29.953125 -29.507812 L 17.464844 -59.460938 L 5.203125 -59.460938 L 5.203125 0 L 16.351562 0 L 16.351562 -32.851562 L 23.859375 -14.9375 L 36.046875 -14.9375 L 43.628906 -33 L 43.628906 0 L 54.703125 0 Z M 54.703125 -59.460938 "/></g></g></g><g fill="#ffffff" fill-opacity="0.4"><g transform="translate(110.299691, 387.986123)"><g><path d="M 33 -60.203125 C 16.203125 -60.203125 2.601562 -46.601562 2.601562 -29.804688 C 2.601562 -13.007812 16.203125 0.59375 33 0.59375 C 49.796875 0.59375 63.398438 -13.007812 63.398438 -29.804688 C 63.398438 -46.601562 49.796875 -60.203125 33 -60.203125 Z M 33 -48.832031 C 43.554688 -48.832031 50.988281 -40.285156 50.988281 -29.804688 C 50.988281 -19.324219 43.554688 -10.777344 33 -10.777344 C 22.519531 -10.777344 15.089844 -19.324219 15.089844 -29.804688 C 15.089844 -40.285156 22.519531 -48.832031 33 -48.832031 Z M 33 -48.832031 "/></g></g></g><g fill="#ffffff" fill-opacity="0.4"><g transform="translate(176.295212, 387.986123)"><g><path d="M 40.285156 -59.460938 L 28.839844 -20.664062 L 17.390625 -59.460938 L 5.203125 -59.460938 L 22.742188 0 L 34.933594 0 L 52.472656 -59.460938 Z M 40.285156 -59.460938 "/></g></g></g><g fill="#ffffff" fill-opacity="0.4"><g transform="translate(233.966971, 387.986123)"><g><path d="M 5.203125 -59.460938 L 16.351562 -59.460938 L 16.351562 -0.222656 L 5.203125 -0.222656 Z M 5.203125 -59.460938 "/></g></g></g><g fill="#ffffff" fill-opacity="0.4"><g transform="translate(255.519565, 387.986123)"><g><path d="M 39.691406 -48.460938 L 39.691406 -59.535156 L 5.203125 -59.535156 L 5.203125 0 L 39.691406 0 L 39.691406 -11.074219 L 16.351562 -11.074219 L 16.351562 -24.304688 L 30.25 -24.304688 L 30.25 -35.378906 L 16.351562 -35.378906 L 16.351562 -48.460938 Z M 39.691406 -48.460938 "/></g></g></g><g fill="#000000" fill-opacity="1"><g transform="translate(54.735284, 386.321327)"><g><path d="M 54.703125 -59.460938 L 42.515625 -59.460938 L 29.953125 -29.507812 L 17.464844 -59.460938 L 5.203125 -59.460938 L 5.203125 0 L 16.351562 0 L 16.351562 -32.851562 L 23.859375 -14.9375 L 36.046875 -14.9375 L 43.628906 -33 L 43.628906 0 L 54.703125 0 Z M 54.703125 -59.460938 "/></g></g></g><g fill="#000000" fill-opacity="1"><g transform="translate(114.636626, 386.321327)"><g><path d="M 33 -60.203125 C 16.203125 -60.203125 2.601562 -46.601562 2.601562 -29.804688 C 2.601562 -13.007812 16.203125 0.59375 33 0.59375 C 49.796875 0.59375 63.398438 -13.007812 63.398438 -29.804688 C 63.398438 -46.601562 49.796875 -60.203125 33 -60.203125 Z M 33 -48.832031 C 43.554688 -48.832031 50.988281 -40.285156 50.988281 -29.804688 C 50.988281 -19.324219 43.554688 -10.777344 33 -10.777344 C 22.519531 -10.777344 15.089844 -19.324219 15.089844 -29.804688 C 15.089844 -40.285156 22.519531 -48.832031 33 -48.832031 Z M 33 -48.832031 "/></g></g></g><g fill="#000000" fill-opacity="1"><g transform="translate(180.632147, 386.321327)"><g><path d="M 40.285156 -59.460938 L 28.839844 -20.664062 L 17.390625 -59.460938 L 5.203125 -59.460938 L 22.742188 0 L 34.933594 0 L 52.472656 -59.460938 Z M 40.285156 -59.460938 "/></g></g></g><g fill="#000000" fill-opacity="1"><g transform="translate(238.303906, 386.321327)"><g><path d="M 5.203125 -59.460938 L 16.351562 -59.460938 L 16.351562 -0.222656 L 5.203125 -0.222656 Z M 5.203125 -59.460938 "/></g></g></g><g fill="#000000" fill-opacity="1"><g transform="translate(259.856499, 386.321327)"><g><path d="M 39.691406 -48.460938 L 39.691406 -59.535156 L 5.203125 -59.535156 L 5.203125 0 L 39.691406 0 L 39.691406 -11.074219 L 16.351562 -11.074219 L 16.351562 -24.304688 L 30.25 -24.304688 L 30.25 -35.378906 L 16.351562 -35.378906 L 16.351562 -48.460938 Z M 39.691406 -48.460938 "/></g></g></g></svg>